<?xml version="1.0" encoding="UTF-8" standalone="no"?>
<!-- Created with Inkscape (http://www.inkscape.org/) -->

<svg
   width="512"
   height="512"
   viewBox="0 0 512 512"
   version="1.1"
   id="svg5"
   sodipodi:docname="Queen.svg"
   inkscape:version="1.2.1 (9c6d41e4, 2022-07-14)"
   xmlns:inkscape="http://www.inkscape.org/namespaces/inkscape"
   xmlns:sodipodi="http://sodipodi.sourceforge.net/DTD/sodipodi-0.dtd"
   xmlns="http://www.w3.org/2000/svg"
   xmlns:svg="http://www.w3.org/2000/svg">
  <sodipodi:namedview
     id="namedview7"
     pagecolor="#ffffff"
     bordercolor="#000000"
     borderopacity="0.25"
     inkscape:showpageshadow="2"
     inkscape:pageopacity="0.0"
     inkscape:pagecheckerboard="0"
     inkscape:deskcolor="#d1d1d1"
     inkscape:document-units="px"
     showgrid="false"
     showguides="false"
     inkscape:zoom="0.65186406"
     inkscape:cx="51.391083"
     inkscape:cy="167.97981"
     inkscape:window-width="1309"
     inkscape:window-height="799"
     inkscape:window-x="69"
     inkscape:window-y="25"
     inkscape:window-maximized="0"
     inkscape:current-layer="svg5">
    <inkscape:grid
       type="xygrid"
       id="grid400" />
    <sodipodi:guide
       position="256,256"
       orientation="0,-1"
       id="guide414"
       inkscape:locked="false" />
    <sodipodi:guide
       position="256,256"
       orientation="1,0"
       id="guide416"
       inkscape:locked="false" />
  </sodipodi:namedview>
  <defs
     id="defs2" />
  <path
     d="m 196.096,285.18399 q 31.232,3.584 62.464,28.672 19.456,15.36 49.664,49.152 v -229.888 q 0,-18.432 -17.92,-33.279998 -17.408,-14.848 -37.888,-14.848 -20.48,0 -38.4,14.848 -17.92,14.847998 -17.92,33.279998 z m 87.04,126.976 -66.048,-64.512 q -8.192,-8.192 -20.992,-10.24 v 36.864 q 0,17.92 17.92,32.768 17.92,14.848 38.4,14.848 15.872,0 30.72,-9.728 z m 113.152,54.272 q -30.208,0 -43.52,-2.56 -15.36,-3.584 -29.696,-14.336 -32.256,26.112 -70.656,26.112 -41.472,0 -74.24,-29.696 -34.304,-30.72 -34.304,-71.68 v -37.888 h -28.16 v -49.152 q 1.536,-0.512 28.16,-2.048 v -152.064 q 0,-41.471998 34.304,-72.191998 32.768,-29.696 74.24,-29.696 41.472,0 74.752,30.208 33.792,30.208 33.792,71.679998 v 241.152 q 0,17.408 -7.168,34.304 7.168,4.608 13.312,6.144 h 29.184 z"
     id="path494"
     inkscape:label="Queen"
     style="font-size:512px;font-family:'Card Characters';-inkscape-font-specification:'Card Characters, Normal';stroke-width:38.831"
     transform="translate(0,2.560009)" />
</svg>
