<?xml version="1.0" encoding="UTF-8" standalone="no"?>
<!-- Created with Inkscape (http://www.inkscape.org/) -->

<svg
   width="512"
   height="512"
   viewBox="0 0 512 512"
   version="1.1"
   id="svg5"
   sodipodi:docname="Ten.svg"
   inkscape:version="1.2.1 (9c6d41e4, 2022-07-14)"
   xmlns:inkscape="http://www.inkscape.org/namespaces/inkscape"
   xmlns:sodipodi="http://sodipodi.sourceforge.net/DTD/sodipodi-0.dtd"
   xmlns="http://www.w3.org/2000/svg"
   xmlns:svg="http://www.w3.org/2000/svg">
  <sodipodi:namedview
     id="namedview7"
     pagecolor="#ffffff"
     bordercolor="#000000"
     borderopacity="0.25"
     inkscape:showpageshadow="2"
     inkscape:pageopacity="0.0"
     inkscape:pagecheckerboard="0"
     inkscape:deskcolor="#d1d1d1"
     inkscape:document-units="px"
     showgrid="false"
     showguides="false"
     inkscape:zoom="0.65186406"
     inkscape:cx="51.391083"
     inkscape:cy="167.97981"
     inkscape:window-width="1309"
     inkscape:window-height="799"
     inkscape:window-x="69"
     inkscape:window-y="25"
     inkscape:window-maximized="0"
     inkscape:current-layer="svg5">
    <inkscape:grid
       type="xygrid"
       id="grid400" />
    <sodipodi:guide
       position="256,256"
       orientation="0,-1"
       id="guide414"
       inkscape:locked="false" />
    <sodipodi:guide
       position="256,256"
       orientation="1,0"
       id="guide416"
       inkscape:locked="false" />
  </sodipodi:namedview>
  <defs
     id="defs2" />
  <path
     d="m 227.84086,331.26401 v -152.064 q 0,-59.392 40.96,-102.400003 40.96,-43.008 99.84,-43.008 58.88,0 99.84,43.008 40.96,43.008003 40.96,102.400003 v 152.064 q 0,59.392 -40.96,103.424 -40.96,43.52 -99.84,43.52 -58.88,0 -99.84,-43.52 -40.96,-44.032 -40.96,-103.424 z m 59.392,-152.064 v 152.064 q 0,34.816 23.552,60.928 24.064,25.6 57.856,25.6 33.792,0 57.344,-26.112 24.064,-26.112 24.064,-60.416 v -152.064 q 0,-34.304 -24.064,-59.392 -23.552,-25.088003 -57.344,-25.088003 -33.792,0 -57.856,25.088003 -23.552,25.088 -23.552,59.392 z"
     id="path608"
     inkscape:label="Zero"
     style="font-size:512px;font-family:'Card Characters';-inkscape-font-specification:'Card Characters, Normal';stroke-width:38.831" />
  <path
     d="M 241.32059,470.528 H 3.7525891 V 410.112 H 94.376589 V 101.888 H 3.7525891 V 41.472 H 152.74459 v 368.64 h 88.576 z"
     id="path605"
     inkscape:label="One"
     style="font-size:512px;font-family:'Card Characters';-inkscape-font-specification:'Card Characters, Normal';stroke-width:38.831" />
</svg>
